<svg xmlns="http://www.w3.org/2000/svg" xmlns:xlink="http://www.w3.org/1999/xlink" width="500" zoomAndPan="magnify" viewBox="0 0 375 374.999991" height="500" preserveAspectRatio="xMidYMid meet" version="1.0"><defs><clipPath id="135d503483"><path d="M 79.21875 0 L 295.96875 0 L 295.96875 340 L 79.21875 340 Z M 79.21875 0 " clip-rule="nonzero"/></clipPath><clipPath id="cf631806a1"><path d="M 79.21875 170 L 124 170 L 124 375 L 79.21875 375 Z M 79.21875 170 " clip-rule="nonzero"/></clipPath></defs><g clip-path="url(#135d503483)"><path fill="#fef536" d="M 79.246094 125 L 123.792969 99.285156 L 251.210938 25.722656 L 251.210938 25.71875 L 295.75 0.00390625 L 295.753906 0 L 295.75 51.4375 L 295.753906 130.714844 L 295.753906 204.804688 L 251.210938 179.085938 L 251.210938 150.578125 L 251.207031 77.152344 L 187.5625 113.902344 L 146.0625 137.859375 L 156.667969 143.988281 L 251.207031 198.566406 L 295.75 224.28125 L 295.753906 250.003906 L 295.75 250.003906 L 185.058594 313.910156 L 141.035156 339.324219 C 138.746094 330.78125 141.039062 223.242188 141.039062 205.796875 L 185.585938 231.515625 L 185.578125 262.175781 L 228.9375 237.144531 L 204.964844 223.300781 L 123.789062 176.4375 L 79.246094 150.71875 L 79.25 125 Z M 79.246094 125 " fill-opacity="1" fill-rule="evenodd"/></g><g clip-path="url(#cf631806a1)"><path fill="#000000" d="M 123.792969 349.28125 L 123.789062 349.28125 L 79.246094 375 L 79.246094 323.570312 L 79.25 176.4375 L 79.246094 170.199219 L 123.785156 195.914062 L 123.785156 231.347656 L 123.789062 297.847656 Z M 123.792969 349.28125 " fill-opacity="1" fill-rule="evenodd"/></g></svg>